<?xml version="1.0" standalone="no"?><!DOCTYPE svg PUBLIC "-//W3C//DTD SVG 1.1//EN" "http://www.w3.org/Graphics/SVG/1.1/DTD/svg11.dtd"><svg t="1522239042765" class="icon" style="" viewBox="0 0 1024 1024" version="1.1" xmlns="http://www.w3.org/2000/svg" p-id="8077" xmlns:xlink="http://www.w3.org/1999/xlink" width="200" height="200"><defs><style type="text/css"></style></defs><path d="M544 467.2C544 460.8 544 460.8 544 467.2L531.2 448C524.8 441.6 518.4 441.6 512 441.6c-6.4 0-12.8 0-19.2 6.4L480 460.8c0 0 0 0 0 0l-204.8 204.8c-12.8 12.8-12.8 25.6 0 38.4l12.8 12.8c12.8 12.8 25.6 12.8 38.4 0L512 531.2l185.6 185.6c12.8 12.8 25.6 12.8 38.4 0l12.8-12.8c12.8-12.8 12.8-25.6 0-38.4L544 467.2zM512 0C230.4 0 0 230.4 0 512c0 281.6 230.4 512 512 512s512-230.4 512-512C1024 230.4 793.6 0 512 0zM512 960c-249.6 0-448-198.4-448-448 0-249.6 198.4-448 448-448s448 198.4 448 448C960 761.6 761.6 960 512 960zM256 288C256 288 256 288 256 288c0 19.2 0 64 0 64 0 0 0 0 0 0L768 352c0 0 0 0 0 0L768 288c0 0 0 0 0 0L256 288z" p-id="8078" fill="#1296db"></path></svg>